<?xml version="1.0" encoding="iso-8859-1"?>
<!-- Generator: Adobe Illustrator 19.0.0, SVG Export Plug-In . SVG Version: 6.00 Build 0)  -->
<svg version="1.1" id="Capa_1" xmlns="http://www.w3.org/2000/svg" xmlns:xlink="http://www.w3.org/1999/xlink" x="0px" y="0px"
	 viewBox="0 0 512.002 512.002" style="enable-background:new 0 0 512.002 512.002;" xml:space="preserve">
<g>
	<g>
		<path d="M150.446,82.377c-4.199,0-7.604,3.405-7.604,7.604v10.542c0,4.199,3.405,7.604,7.604,7.604s7.604-3.405,7.604-7.604
			V89.981C158.05,85.782,154.645,82.377,150.446,82.377z"/>
	</g>
</g>
<g>
	<g>
		<path d="M177.854,82.377c-4.199,0-7.604,3.405-7.604,7.604v10.542c0,4.199,3.405,7.604,7.604,7.604s7.604-3.405,7.604-7.604
			V89.981C185.458,85.782,182.053,82.377,177.854,82.377z"/>
	</g>
</g>
<g>
	<g>
		<path d="M153.749,140.548c-9.45-0.505-15.957-4.099-19.893-10.986c-2.084-3.647-6.73-4.912-10.375-2.83
			c-3.646,2.083-4.913,6.728-2.83,10.375c6.518,11.406,17.683,17.847,32.286,18.627c0.138,0.007,0.275,0.011,0.412,0.011
			c4.013,0,7.371-3.144,7.587-7.198C161.16,144.353,157.942,140.772,153.749,140.548z"/>
	</g>
</g>
<g>
	<g>
		<path d="M204.845,77.041c-4.199,0-7.604,3.405-7.604,7.604v30.771c0,30.949-25.183,56.128-56.138,56.128
			c-27.913,0-51.815-20.817-55.599-48.421c-0.387-2.826-2.323-5.196-5.014-6.141c-1.851-0.651-3.5-1.69-4.903-3.093
			c-2.445-2.442-3.792-5.691-3.792-9.148s1.346-6.707,3.795-9.152c1.312-1.312,2.823-2.299,4.507-2.942
			c4.776-1.833,10.194-0.681,13.808,2.932c0.018,0.018,0.044,0.044,0.064,0.064c0.001,0.002,0.003,0.004,0.005,0.005
			c0.002,0.002,0.004,0.004,0.005,0.005c0.007,0.007,0.014,0.013,0.021,0.02c2.992,2.9,7.754,2.844,10.685-0.112
			c0.001-0.001,0.002-0.002,0.004-0.004c0.001-0.001,0.002-0.003,0.004-0.004c0-0.001,0.001-0.001,0.002-0.002
			c0.002-0.002,0.004-0.004,0.006-0.006c0.375-0.38,0.701-0.79,0.979-1.222c0.002-0.003,0.003-0.006,0.005-0.009
			c0-0.001,0.001-0.002,0.001-0.002c0.001-0.002,0.003-0.005,0.004-0.007c0.001-0.001,0.002-0.003,0.003-0.004
			c0.001-0.001,0.002-0.003,0.003-0.005s0.002-0.004,0.004-0.006c0-0.001,0.001-0.002,0.002-0.003
			c0.001-0.003,0.003-0.005,0.005-0.008c0,0,0,0,0.001-0.001c0.81-1.276,1.201-2.74,1.176-4.197c0.052-2.04,1.36-7.318,4.754-13.326
			c2.856-5.053,8.047-12.137,16.561-17.186c17.896-10.614,43.138-7.601,72.996,8.715c2.355,1.288,5.216,1.237,7.525-0.133
			c2.31-1.37,3.725-3.855,3.725-6.54c0-17.649-4.858-31.1-14.855-41.119C183.834,6.704,161.276,0,128.627,0
			C96.211,0,72.961,8.217,59.524,24.424C48.034,38.279,44.416,57.015,48.767,80.109c0.777,4.126,4.75,6.843,8.88,6.064
			c4.126-0.778,6.843-4.753,6.064-8.88c-3.473-18.435-0.944-32.957,7.519-43.162c10.411-12.556,29.722-18.923,57.397-18.923
			c51.836,0,64.51,18.562,67.609,33.626c-22.942-10.306-51.573-16.711-75.793-2.346C106.71,54.633,98.11,67.522,94.185,78.21
			c-6.212-2.207-13.139-2.218-19.523,0.233c-3.682,1.404-6.989,3.556-9.821,6.388c-5.323,5.315-8.253,12.385-8.253,19.908
			c0,7.523,2.931,14.594,8.25,19.906c1.896,1.895,4.007,3.487,6.307,4.757c6.57,32.979,35.919,57.348,69.959,57.348
			c39.34,0,71.346-32.001,71.346-71.335V84.645C212.449,80.446,209.044,77.041,204.845,77.041z"/>
	</g>
</g>
<g>
	<g>
		<path d="M48.993,102.521c-3.705-1.979-8.312-0.58-10.29,3.125c-6.789,12.712-14.617,24.305-20.636,32.59
			c-6.178-35.66,0.458-58.31,18.929-62.99c4.071-1.032,6.534-5.168,5.503-9.239c-1.032-4.071-5.167-6.535-9.238-5.503
			C23.214,63.048,9.954,70.29,3.83,90.333c-5.107,16.719-4.146,39.399,2.857,67.412c0.692,2.772,2.881,4.921,5.664,5.565
			c0.569,0.131,1.143,0.196,1.711,0.195c2.216,0,4.358-0.97,5.821-2.71c0.739-0.88,18.27-21.84,32.234-47.984
			C54.096,109.106,52.697,104.499,48.993,102.521z"/>
	</g>
</g>
<g>
	<g>
		<path d="M104.218,183.019c-3.653-2.072-8.294-0.791-10.366,2.862c-7.598,13.397-18.475,36.024-27.148,67.736
			c-1.108,4.05,1.277,8.233,5.329,9.341c0.671,0.184,1.346,0.272,2.01,0.272c3.342,0,6.406-2.22,7.33-5.6
			c8.259-30.195,18.539-51.604,25.708-64.245C109.152,189.731,107.871,185.091,104.218,183.019z"/>
	</g>
</g>
<g>
	<g>
		<path d="M445.069,185.879c-2.073-3.652-6.714-4.932-10.367-2.861c-3.653,2.071-4.935,6.713-2.863,10.366
			c14.555,25.666,38.771,81.608,39.758,170.792c-15.388,4.198-64.039,14.778-127.439,2.031
			c8.428-25.582,34.066-106.453,42.961-169.521c0.586-4.159-2.309-8.005-6.467-8.591c-4.152-0.587-8.005,2.308-8.592,6.467
			c-0.46,3.265-0.969,6.581-1.517,9.934c-46.899-26.53-72.735-80.588-76.844-89.728V77.832c0-4.199-3.404-7.604-7.604-7.604
			s-7.604,3.405-7.604,7.604v38.527c0,1,0.197,1.989,0.58,2.913c1.224,2.951,29.859,70.676,88.658,100.994
			c-13.364,69.496-40.364,148.222-40.669,149.109c-0.703,2.04-0.506,4.284,0.541,6.169c1.047,1.886,2.848,3.239,4.951,3.721
			c13.582,3.109,26.55,5.192,38.773,6.495c-4.128,28.855-3.535,68.714,16.176,111.03h-14.004c-4.2,0-7.604,3.405-7.604,7.604
			c0,4.199,3.404,7.604,7.604,7.604h26.349c2.682,0,5.165-1.412,6.535-3.717c1.371-2.305,1.426-5.161,0.146-7.518
			c-23.523-43.296-24.31-84.711-20.013-113.75c6.492,0.383,12.739,0.562,18.698,0.562c5.398,0,10.558-0.144,15.48-0.391
			c-3.911,28.732-3.025,67.969,16.367,109.607h-14.016c-4.2,0-7.604,3.405-7.604,7.604c0,4.199,3.404,7.604,7.604,7.604h26.36
			c2.682,0,5.165-1.412,6.535-3.717c1.371-2.305,1.425-5.161,0.147-7.517c-23.798-43.812-24.33-85.686-19.862-114.765
			c27.471-2.833,44.204-8.538,45.519-8.998c3.05-1.068,5.092-3.946,5.092-7.177C486.836,273.86,460.666,213.386,445.069,185.879z"/>
	</g>
</g>
<g>
	<g>
		<path d="M388.473,82.377c-4.2,0-7.604,3.405-7.604,7.604v10.542c0,4.199,3.404,7.604,7.604,7.604s7.604-3.405,7.604-7.604V89.981
			C396.077,85.782,392.673,82.377,388.473,82.377z"/>
	</g>
</g>
<g>
	<g>
		<path d="M361.065,82.377c-4.2,0-7.604,3.405-7.604,7.604v10.542c0,4.199,3.404,7.604,7.604,7.604c4.201,0,7.604-3.405,7.604-7.604
			V89.981C368.669,85.782,365.265,82.377,361.065,82.377z"/>
	</g>
</g>
<g>
	<g>
		<path d="M415.436,126.731c-3.645-2.082-8.29-0.816-10.374,2.83c-3.936,6.888-10.443,10.481-19.892,10.986
			c-4.194,0.224-7.412,3.806-7.188,7.999c0.217,4.055,3.572,7.198,7.586,7.198c0.137,0,0.275-0.003,0.412-0.011
			c14.604-0.78,25.768-7.221,32.286-18.628C420.35,133.46,419.083,128.814,415.436,126.731z"/>
	</g>
</g>
<g>
	<g>
		<path d="M509.769,89.951c-2.842-20.151-8.286-36.317-16.644-49.422c-2.258-3.541-6.96-4.581-10.499-2.323
			c-3.541,2.258-4.582,6.959-2.323,10.5c7.064,11.076,11.911,25.668,14.407,43.369c7.27,51.547-13.831,101.502-27.056,126.691
			c-1.952,3.718-0.52,8.315,3.198,10.267c1.127,0.592,2.337,0.873,3.527,0.873c2.735,0,5.38-1.48,6.739-4.071
			C495.195,199.025,517.635,145.721,509.769,89.951z"/>
	</g>
</g>
<g>
	<g>
		<path d="M474.085,84.836c-2.838-2.837-6.143-4.987-9.809-6.386c-5.552-2.131-11.502-2.407-17.042-0.998V71.75
			c0-2.464-1.208-4.77-3.217-6.196c-2.01-1.425-4.597-1.785-6.926-0.971c-1.412,0.494-34.865,11.762-57.585-17.749
			c-1.334-1.734-3.351-2.808-5.534-2.949c-2.182-0.139-4.321,0.665-5.868,2.211c-5.23,5.229-18.056,7.424-27.833,7.866
			c-0.95-6.722-1.009-17.072,5.188-25.166c6.902-9.016,20.083-13.588,39.174-13.588c28.223,0,57.509,1.183,78.209,15.318
			c3.467,2.368,8.2,1.476,10.568-1.991c2.368-3.468,1.477-8.199-1.991-10.568C447.138,1.387,415.231,0,384.633,0
			c-24.074,0-41.317,6.578-51.25,19.55c-12.375,16.163-8.772,36.186-6.649,44.045c0.87,3.219,3.736,5.495,7.069,5.615
			c2.752,0.098,24.118,0.579,38.461-7.463c18.914,19.989,43.4,22.273,59.761,19.683v8.782c0,3.075,1.857,5.843,4.699,7.02
			c2.842,1.176,6.116,0.522,8.292-1.654c3.612-3.613,9.035-4.765,13.823-2.925c1.668,0.636,3.178,1.623,4.495,2.939
			c2.444,2.442,3.791,5.691,3.791,9.148s-1.346,6.707-3.795,9.153c-1.399,1.399-3.047,2.438-4.898,3.088
			c-2.691,0.945-4.626,3.316-5.014,6.142c-3.784,27.604-27.688,48.421-55.6,48.421c-30.954,0-56.138-25.178-56.138-56.128V84.647
			c0-4.199-3.404-7.604-7.604-7.604s-7.604,3.405-7.604,7.604v30.771c0,39.335,32.006,71.335,71.346,71.335
			c34.04,0,63.389-24.37,69.96-57.348c2.301-1.271,4.41-2.861,6.303-4.755c5.322-5.315,8.253-12.385,8.253-19.909
			C482.334,97.218,479.403,90.148,474.085,84.836z"/>
	</g>
</g>
<g>
	<g>
		<path d="M429.763,225.513c-2.43-3.426-7.177-4.23-10.599-1.803c-3.426,2.429-4.234,7.175-1.806,10.601
			c0.081,0.116,8.26,11.702,15.552,25.772c12,23.16,11.861,33.71,10.709,37.938c-0.657,2.412-1.897,3.873-4.144,4.884
			c-9.143,4.115-15.297-0.591-24.581-8.608c-6.636-5.728-13.505-11.651-22.328-10.927c-5.552,0.455-10.554,3.441-15.294,9.128
			c-2.689,3.226-2.254,8.021,0.972,10.709c3.226,2.688,8.02,2.254,10.709-0.972c1.882-2.258,3.653-3.61,4.856-3.709
			c2.511-0.207,7.083,3.774,11.146,7.282c6.715,5.797,16.023,13.833,28.131,13.833c3.915,0,8.122-0.841,12.629-2.867
			c6.384-2.872,10.735-7.978,12.58-14.766C465.227,276.521,433.414,230.658,429.763,225.513z"/>
	</g>
</g>
<g>
	<g>
		<path d="M262.382,70.229c-4.2,0-7.604,3.405-7.604,7.604v36.943c-2.66,5.953-14.459,30.906-35.341,54.913
			c-15.7,18.049-32.502,31.209-50.285,39.425c-0.851-4.933-1.621-9.796-2.291-14.552c-0.587-4.159-4.437-7.055-8.591-6.467
			c-4.159,0.586-7.054,4.433-6.467,8.591c0.826,5.857,1.799,11.863,2.881,17.944c-13.346,4.062-27.192,5.495-41.494,4.255
			c-4.177-0.359-7.869,2.735-8.233,6.92c-0.362,4.183,2.735,7.87,6.92,8.233c3.671,0.317,7.319,0.477,10.952,0.477
			c11.807,0,23.4-1.688,34.69-4.996c6.154,30.449,14.453,61.443,21.181,84.719c6.61,22.866,12.697,41.786,16.059,51.971
			c-63.211,12.695-112.017,2.136-127.435-2.043c0.317-28.349,3.02-55.563,8.049-80.975c0.815-4.119-1.863-8.12-5.984-8.935
			s-8.119,1.864-8.935,5.983c-5.554,28.07-8.37,58.212-8.37,89.589c0,3.231,2.042,6.11,5.092,7.177
			c1.316,0.46,18.046,6.166,45.518,8.999c4.469,29.079,3.938,70.952-19.861,114.764c-1.281,2.356-1.225,5.212,0.147,7.517
			c1.372,2.305,3.854,3.717,6.535,3.717h26.36c4.199,0,7.604-3.405,7.604-7.604s-3.405-7.604-7.604-7.604h-14.017
			c19.393-41.637,20.279-80.875,16.368-109.607c4.921,0.247,10.082,0.391,15.481,0.391c5.957,0,12.205-0.178,18.697-0.562
			c4.298,29.04,3.51,70.454-20.014,113.751c-1.279,2.356-1.225,5.212,0.146,7.518c1.371,2.305,3.854,3.717,6.535,3.717h26.35
			c4.199,0,7.604-3.405,7.604-7.604c0-4.199-3.405-7.604-7.604-7.604h-14.005c19.712-42.317,20.305-82.177,16.176-111.031
			c12.224-1.304,25.193-3.386,38.773-6.495c2.104-0.482,3.904-1.834,4.952-3.721c1.047-1.887,1.244-4.129,0.54-6.169
			c-0.299-0.87-26.267-76.573-39.878-145.059c21.122-9.04,40.981-24.012,58.93-44.646c25.41-29.212,37.973-59.138,38.494-60.397
			c0.383-0.924,0.58-1.913,0.58-2.913V77.836C269.986,73.634,266.582,70.229,262.382,70.229z"/>
	</g>
</g>
<g>
	<g>
		<path d="M273.966,26.632c-4.2,0-7.604,3.405-7.604,7.604v10.14c0,4.199,3.404,7.604,7.604,7.604s7.604-3.405,7.604-7.604v-10.14
			C281.57,30.037,278.166,26.632,273.966,26.632z"/>
	</g>
</g>
<g>
	<g>
		<path d="M313.652,41.765c-2.969-2.97-7.783-2.97-10.753,0l-5.069,5.069c-2.97,2.97-2.97,7.784,0.001,10.753
			c1.483,1.485,3.43,2.227,5.375,2.227c1.946,0,3.892-0.742,5.378-2.227l5.069-5.069C316.623,49.549,316.623,44.734,313.652,41.765z
			"/>
	</g>
</g>
<g>
	<g>
		<path d="M250.103,46.834l-5.069-5.069c-2.97-2.97-7.784-2.971-10.754,0c-2.97,2.97-2.97,7.783,0,10.753l5.069,5.069
			c1.485,1.485,3.431,2.227,5.378,2.227c1.946,0,3.892-0.742,5.376-2.227C253.072,54.618,253.072,49.804,250.103,46.834z"/>
	</g>
</g>
<g>
</g>
<g>
</g>
<g>
</g>
<g>
</g>
<g>
</g>
<g>
</g>
<g>
</g>
<g>
</g>
<g>
</g>
<g>
</g>
<g>
</g>
<g>
</g>
<g>
</g>
<g>
</g>
<g>
</g>
</svg>
