<?xml version="1.0" encoding="iso-8859-1"?>
<!-- Generator: Adobe Illustrator 19.0.0, SVG Export Plug-In . SVG Version: 6.00 Build 0)  -->
<svg version="1.1" id="Layer_1" xmlns="http://www.w3.org/2000/svg" xmlns:xlink="http://www.w3.org/1999/xlink" x="0px" y="0px"
	 viewBox="0 0 512 512" style="enable-background:new 0 0 512 512;" xml:space="preserve">
<g>
	<g>
		<g>
			<path d="M452.319,120.616c3.674-1.258,6.731-4.043,8.253-7.786c2.175-5.349,0.76-11.489-3.539-15.344l-46.535-41.745
				c-1.64-1.471-3.612-2.525-5.744-3.071l-85.542-21.899c-0.198-0.051-0.397-0.088-0.595-0.129C305.069,11.979,281.098,0,258.865,0
				c-34.807,0-63.574,28.321-63.123,63.123c0.152,11.757,3.32,20.701,5.096,24.867c1.224,2.846,2.611,6.148,3.613,9.345
				c8.5,26.949,13.798,50.512,15.485,68.424c-24.914-4.224-48.27-3.478-69.633,2.246C66.038,190.595,21.127,287.731,19.256,291.854
				c-2.699,5.95-0.816,12.978,4.496,16.781c1,0.717,24.902,17.7,59.431,30.985c0.003,0.001,0.005,0.003,0.008,0.004
				c27.182,10.468,52.807,15.715,76.874,15.715c4.243,0,8.343-0.183,12.449-0.509V498.43c0,7.559,6.404,13.57,13.963,13.57h34.217
				c7.559,0,13.687-6.128,13.687-13.687c0-7.559-6.128-13.687-13.687-13.687h-20.807v-60.222h12.594
				c7.559,0,13.687-6.128,13.687-13.687s-6.128-13.687-13.687-13.687h-12.594v-46.94c50.641-13.917,87.116-54.737,108.818-86.641
				c15.195-22.324,15.732-50.946,3.413-74.697c0,0,0-0.001,0-0.003c-9.581-17.638-14.511-35.673-13.859-53.594
				c0.252-6.787,2.097-13.505,5.268-19.742l95.784,3.953c-17.125,36.345-42.224,93.625-42.224,116.961
				c0,37.734,30.708,68.434,68.442,68.434s68.438-30.699,68.438-68.434C493.968,213.258,469.425,157.011,452.319,120.616z
				 M49.576,292.554c13.35-24.169,50.987-83.059,107.815-98.291c16.369-4.385,34.414-5.269,53.842-2.532h0.015
				c-20.302,28.742-66.524,87.471-124.048,119.841C71.153,304.943,57.955,297.621,49.576,292.554z M292.8,83.92
				c-13.473,14.003-21.268,31.838-21.949,50.23c-0.838,22.994,4.963,45.841,17.24,67.908c8.144,14.652,7.405,32.273-1.933,45.993
				c-19.224,28.259-51.153,64.36-94.083,75.859c-21.312,5.713-45.124,5.376-71.063-0.968
				c72.72-49.52,122.392-129.264,124.705-133.019c1.187-1.926,1.878-4.114,2.011-6.373c1.645-27.85-8.43-66.734-17.163-94.423
				c-1.381-4.409-3.145-8.456-4.56-11.905c-2.109-5.139-2.889-12.41-2.889-14.101c0-19.713,16.037-35.75,35.75-35.75
				c19.641,0,43.361,15.946,43.361,35.75C302.226,72.217,297.101,79.451,292.8,83.92z M322.88,88.813
				c4.388-8.12,6.72-16.889,6.72-25.691c0-0.487-0.033-0.965-0.047-1.448l65.163,16.683l15.685,14.07L322.88,88.813z
				 M425.538,277.389c-22.641,0-41.06-18.42-41.06-41.06c0-16.065,21.833-67.518,41.062-108.261
				c19.227,40.739,41.059,92.186,41.059,108.261C466.598,258.969,448.179,277.389,425.538,277.389z"/>
			<circle cx="266.275" cy="62.271" r="10.265"/>
		</g>
	</g>
</g>
<g>
</g>
<g>
</g>
<g>
</g>
<g>
</g>
<g>
</g>
<g>
</g>
<g>
</g>
<g>
</g>
<g>
</g>
<g>
</g>
<g>
</g>
<g>
</g>
<g>
</g>
<g>
</g>
<g>
</g>
</svg>
