<svg height="397pt" viewBox="0 0 397 397.7472" width="397pt" xmlns="http://www.w3.org/2000/svg"><path d="m143.734375 397.746094c-38.296875 0-74.292969-14.90625-101.371094-41.984375-27.074219-27.082031-41.988281-63.082031-41.988281-101.375s14.910156-74.292969 41.988281-101.367188l111.023438-111.027343c27.078125-27.078126 63.078125-41.992188 101.371093-41.992188 38.292969 0 74.292969 14.914062 101.367188 41.992188 55.898438 55.894531 55.898438 146.847656.003906 202.742187l-111.027344 111.027344c-27.074218 27.078125-63.074218 41.984375-101.367187 41.984375zm111.023437-384.089844c-34.644531 0-67.21875 13.492188-91.714843 37.992188l-111.027344 111.027343c-24.496094 24.496094-37.988281 57.066407-37.988281 91.714844 0 34.644531 13.492187 67.21875 37.988281 91.71875 24.5 24.5 57.070313 37.984375 91.71875 37.984375 34.644531 0 67.214844-13.484375 91.714844-37.984375l111.027343-111.027344c50.570313-50.574219 50.570313-132.859375 0-183.433593-24.5-24.5-57.070312-37.992188-91.71875-37.992188zm0 0"/><path d="m153.394531 396.375c-2.191406 0-4.339843-1.046875-5.660156-3-102.332031-151.0625-30.261719-313.96875-29.523437-315.59375 1.550781-3.433594 5.582031-4.972656 9.03125-3.386719 3.433593 1.554688 4.949218 5.601563 3.398437 9.035157-.707031 1.558593-69.546875 157.707031 28.398437 302.292968 2.113282 3.121094 1.296876 7.367188-1.820312 9.480469-1.175781.792969-2.507812 1.171875-3.824219 1.171875zm0 0"/><path d="m182.449219 335.414062c-39.757813 0-64.09375-11.300781-65.804688-12.121093-3.398437-1.625-4.835937-5.707031-3.203125-9.105469 1.628906-3.394531 5.710938-4.832031 9.09375-3.207031.667969.308593 68.132813 31.234375 163.046875-14.472657 3.40625-1.613281 7.476563-.207031 9.113281 3.191407 1.636719 3.394531.210938 7.476562-3.1875 9.117187-42.714843 20.566406-80.003906 26.597656-109.058593 26.597656zm0 0"/><path d="m269.238281 251.761719c-32.820312 0-63.675781-12.78125-86.886719-35.996094-47.910156-47.90625-47.910156-125.867187 0-173.769531 47.90625-47.921875 125.863282-47.921875 173.773438 0 23.210938 23.207031 35.996094 54.066406 35.996094 86.882812 0 32.820313-12.785156 63.679688-35.996094 86.886719-23.203125 23.214844-54.058594 35.996094-86.886719 35.996094zm0-232.054688c-27.972656 0-55.9375 10.648438-77.234375 31.941407-42.585937 42.585937-42.585937 111.882812 0 154.46875 20.628906 20.632812 48.058594 31.992187 77.234375 31.992187s56.605469-11.359375 77.234375-31.992187c20.632813-20.636719 31.996094-48.0625 31.996094-77.234376 0-29.175781-11.363281-56.601562-31.996094-77.234374-21.289062-21.285157-49.265625-31.941407-77.234375-31.941407zm0 0"/><path d="m252.273438 111.714844c-18.851563 0-34.132813 15.28125-34.132813 34.132812 0 18.855469 15.28125 34.132813 34.132813 34.132813 18.851562 0 34.132812-15.277344 34.132812-34.132813 0-18.851562-15.28125-34.132812-34.132812-34.132812zm0 54.613281c-7.539063 0-13.652344-6.113281-13.652344-13.652344 0-7.539062 27.304687-7.539062 27.304687 0 0 7.539063-6.113281 13.652344-13.652343 13.652344zm0 0"/><path d="m284.550781 81.78125c-1.746093 0-3.492187-.667969-4.828125-2-2.664062-2.660156-2.664062-6.988281 0-9.652344 1.289063-1.285156 2-3.007812 2-4.828125 0-1.824219-.707031-3.539062-2-4.824219-2.660156-2.65625-6.996094-2.679687-9.65625 0-2.664062 2.664063-6.984375 2.664063-9.652344 0-2.664062-2.667968-2.664062-6.988281 0-9.652343 7.984376-7.988281 20.972657-8.003907 28.964844 0 3.867188 3.867187 5.996094 9.003906 5.996094 14.476562 0 5.46875-2.128906 10.613281-5.992188 14.480469-1.335937 1.332031-3.085937 2-4.832031 2zm0 0"/><path d="m337.648438 134.882812c-1.746094 0-3.496094-.667968-4.828126-2-2.664062-2.667968-2.664062-6.988281 0-9.65625 1.289063-1.292968 2-3.003906 2-4.824218 0-1.828125-.710937-3.535156-1.996093-4.820313-2.585938-2.597656-7.078125-2.59375-9.652344-.007812-2.667969 2.667969-6.992187 2.667969-9.65625 0-2.667969-2.660157-2.667969-6.984375-.003906-9.652344 7.738281-7.734375 21.226562-7.734375 28.964843 0 3.867188 3.859375 6 9.007813 6 14.480469 0 5.464844-2.132812 10.613281-6 14.480468-1.335937 1.332032-3.082031 2-4.828124 2zm0 0"/><path d="m327.167969 48.820312c-1.746094 0-3.492188-.667968-4.828125-2-2.664063-2.664062-2.664063-6.988281 0-9.652343l33.792968-33.792969c2.664063-2.667969 6.984376-2.667969 9.652344 0 2.664063 2.664062 2.664063 6.984375 0 9.652344l-33.789062 33.792968c-1.335938 1.335938-3.082032 2-4.828125 2zm0 0"/><path d="m341.648438 63.300781c-1.746094 0-3.496094-.667969-4.828126-2-2.664062-2.667969-2.664062-6.988281 0-9.652343l14.484376-14.480469c2.664062-2.664063 6.984374-2.664063 9.652343 0 2.664063 2.664062 2.664063 6.988281 0 9.652343l-14.484375 14.480469c-1.332031 1.332031-3.078125 2-4.824218 2zm0 0"/><path d="m356.128906 77.78125c-1.746094 0-3.492187-.667969-4.824218-2-2.667969-2.664062-2.667969-6.988281 0-9.652344l24.132812-24.132812c2.664062-2.667969 6.988281-2.667969 9.652344 0 2.667968 2.664062 2.667968 6.984375 0 9.652344l-24.132813 24.132812c-1.332031 1.332031-3.078125 2-4.828125 2zm0 0"/><path d="m347.847656 173.15625c0-7.542969-13.652344-27.308594-13.652344-27.308594s-13.65625 19.765625-13.65625 27.308594c0 7.539062 6.113282 13.652344 13.65625 13.652344 7.539063 0 13.652344-6.113282 13.652344-13.652344zm0 0"/><path d="m347.847656 241.421875c0-7.539063-13.652344-27.308594-13.652344-27.308594s-13.65625 19.769531-13.65625 27.308594 6.113282 13.652344 13.65625 13.652344c7.539063 0 13.652344-6.113281 13.652344-13.652344zm0 0"/><path d="m347.847656 316.515625c0-7.539063-13.652344-27.308594-13.652344-27.308594s-13.65625 19.769531-13.65625 27.308594 6.113282 13.652344 13.65625 13.652344c7.539063 0 13.652344-6.113281 13.652344-13.652344zm0 0"/></svg>