<?xml version="1.0" encoding="iso-8859-1"?>
<!-- Generator: Adobe Illustrator 19.0.0, SVG Export Plug-In . SVG Version: 6.00 Build 0)  -->
<svg version="1.1" id="Layer_1" xmlns="http://www.w3.org/2000/svg" xmlns:xlink="http://www.w3.org/1999/xlink" x="0px" y="0px"
	 viewBox="0 0 512 512" style="enable-background:new 0 0 512 512;" xml:space="preserve">
<path style="fill:#D94158;" d="M501.461,383.808L320.524,51.387c-13.802-22.803-37.804-36.604-64.506-36.604
	s-50.704,13.802-64.506,36.604L10.54,383.808c-13.8,23.703-14.1,51.905-0.599,75.606c13.5,23.701,37.801,37.803,65.104,37.803
	h361.909c27.303,0,51.605-14.102,65.104-37.803C515.561,435.714,515.26,407.512,501.461,383.808z"/>
<path style="fill:#CC2944;" d="M502.059,459.414c-13.5,23.701-37.801,37.803-65.104,37.803H256.018V14.783
	c26.702,0,50.704,13.802,64.506,36.604l180.937,332.422C515.26,407.512,515.561,435.714,502.059,459.414z"/>
<path style="fill:#FFDE33;" d="M475.659,399.11L294.72,66.686c-8.099-13.8-22.8-21.901-38.702-21.901s-30.603,8.102-38.702,21.901
	L36.342,399.11c-8.4,14.102-8.4,31.201-0.298,45.303c8.1,14.4,22.8,22.802,39.003,22.802h361.909
	c16.202,0,30.903-8.402,39.003-22.802C484.058,430.311,484.058,413.212,475.659,399.11z"/>
<path style="fill:#FFBC33;" d="M475.958,444.413c-8.1,14.4-22.8,22.802-39.003,22.802H256.018V44.785
	c15.902,0,30.603,8.102,38.702,21.901L475.659,399.11C484.058,413.212,484.058,430.311,475.958,444.413z"/>
<g>
	<path style="fill:#495A79;" d="M196.014,437.213H75.156c-11.608,0-18.836-12.638-12.892-22.663l62.392-102.986
		c4.184-6.994,13.289-9.572,20.626-5.2c40.55,24.333,65.733,68.721,65.733,115.848C211.015,430.503,204.306,437.213,196.014,437.213
		z"/>
	<path style="fill:#495A79;" d="M211.015,257.2c-16.539,0-30.002-13.463-30.002-30.002s13.463-30.002,30.002-30.002
		s30.002,13.463,30.002,30.002S227.554,257.2,211.015,257.2z"/>
	<path style="fill:#495A79;" d="M386.527,432.713c-5.7,6-15.299,6-21,0l-60.004-60.004c-3.001-2.699-4.501-6.599-4.501-10.5v-23.701
		l-30.002,30.002v53.703c0,8.402-6.599,15.001-15.001,15.001s-15.001-6.599-15.001-15.001v-60.004c0-3.9,1.5-7.801,4.501-10.5
		l10.501-10.503l38.702-39.003l-32.102-32.102l-6.599,19.502l-15.902,47.402c-2.399,7.801-10.801,12.002-18.899,9.301
		c-7.801-2.399-12.002-11.101-9.301-18.899l30.002-90.006c2.098-6.301,8.4-10.202,14.1-10.202h90.006
		c8.402,0,15.001,6.599,15.001,15.001v30.002c0,8.402-6.599,15.001-15.001,15.001c-8.402,0-15.001-6.599-15.001-15.001v-15.001
		h-38.702l34.201,34.503c3.001,2.699,4.501,6.599,4.501,10.5v53.703l55.503,55.805C392.528,417.413,392.528,427.011,386.527,432.713
		z"/>
</g>
<path style="fill:#42516D;" d="M386.527,432.713c-5.7,6-15.299,6-21,0l-60.004-60.004c-3.001-2.699-4.501-6.599-4.501-10.5v-23.701
	l-30.002,30.002v53.703c0,8.402-6.599,15.001-15.001,15.001v-96.007l38.702-39.003l-32.102-32.102l-6.598,19.501v-62.405h90.006
	c8.402,0,15.001,6.599,15.001,15.001v30.002c0,8.402-6.599,15.001-15.001,15.001c-8.402,0-15.001-6.599-15.001-15.001V257.2h-38.702
	l34.201,34.503c3.001,2.699,4.501,6.599,4.501,10.5v53.703l55.503,55.805C392.528,417.413,392.528,427.011,386.527,432.713z"/>
<g>
</g>
<g>
</g>
<g>
</g>
<g>
</g>
<g>
</g>
<g>
</g>
<g>
</g>
<g>
</g>
<g>
</g>
<g>
</g>
<g>
</g>
<g>
</g>
<g>
</g>
<g>
</g>
<g>
</g>
</svg>
