<?xml version="1.0" encoding="iso-8859-1"?>
<!-- Generator: Adobe Illustrator 19.0.0, SVG Export Plug-In . SVG Version: 6.00 Build 0)  -->
<svg version="1.1" id="Layer_1" xmlns="http://www.w3.org/2000/svg" xmlns:xlink="http://www.w3.org/1999/xlink" x="0px" y="0px"
	 viewBox="0 0 512 512" style="enable-background:new 0 0 512 512;" xml:space="preserve">
<g>
	<path style="fill:#F8A805;" d="M234.065,182.745c0,0-61.344,99.557-145.955,144.108c-33.3-12.811-56.389-29.344-56.389-29.344
		s43.141-95.109,122.127-116.282C181.125,173.917,209.114,176.395,234.065,182.745z"/>
	<polygon style="fill:#F8A805;" points="322.154,45.511 401.358,65.929 447.893,107.674 312.802,102.082 	"/>
</g>
<path style="fill:#ECF0F1;" d="M300.049,195.405c10.58,19.025,9.677,42.347-2.573,60.345
	c-20.01,29.413-54.487,68.694-101.857,81.381c-37.789,10.128-76.947,1.492-107.509-10.279
	c84.611-44.55,145.955-144.108,145.955-144.108c1.56-26.415-8.855-65.094-16.561-89.525c-1.136-3.627-8.122-20.051-8.075-30.097
	c0.129-27.305,22.131-49.436,49.436-49.436s57.046,22.131,57.046,49.436c0,11.415-5.201,21.926-13.249,30.289
	c-10.771,11.196-17.56,25.704-18.135,41.238C283.939,150.8,286.992,171.933,300.049,195.405z"/>
<path style="fill:#D25256;" d="M480.285,236.329c0,30.235-24.512,54.747-54.747,54.747c-30.235,0-54.747-24.512-54.747-54.747
	s54.747-139.605,54.747-139.605S480.285,206.093,480.285,236.329z"/>
<g>
	<path style="fill:#231F20;" d="M452.319,120.616c3.674-1.258,6.731-4.043,8.253-7.786c2.175-5.349,0.76-11.489-3.539-15.344
		l-46.535-41.745c-1.64-1.471-3.612-2.525-5.744-3.071l-85.542-21.899c-0.198-0.051-0.397-0.088-0.595-0.129
		C305.069,11.979,281.098,0,258.865,0c-34.807,0-63.574,28.321-63.123,63.123c0.152,11.757,3.32,20.701,5.096,24.867
		c1.224,2.845,2.611,6.148,3.613,9.345c8.499,26.949,13.798,50.512,15.485,68.424c-24.914-4.224-48.27-3.478-69.633,2.246
		C66.038,190.595,21.127,287.731,19.256,291.854c-2.699,5.95-0.816,12.978,4.496,16.781c1,0.717,24.902,17.7,59.431,30.985
		c0.003,0.001,0.005,0.003,0.008,0.004c27.182,10.468,52.808,15.715,76.874,15.715c4.243,0,8.343-0.183,12.449-0.509V498.43
		c0,7.559,6.404,13.57,13.963,13.57h34.217c7.559,0,13.687-6.128,13.687-13.687s-6.128-13.687-13.687-13.687h-20.807v-60.222h12.595
		c7.559,0,13.687-6.128,13.687-13.687s-6.128-13.687-13.687-13.687h-12.595v-46.94c50.641-13.917,87.116-54.737,108.818-86.641
		c15.195-22.324,15.732-50.946,3.413-74.697c0,0,0-0.001,0-0.003c-9.581-17.638-14.511-35.673-13.859-53.594
		c0.252-6.787,2.097-13.505,5.268-19.742l95.784,3.953c-17.125,36.345-42.224,93.625-42.224,116.961
		c0,37.734,30.708,68.434,68.442,68.434s68.438-30.699,68.438-68.434C493.968,213.258,469.425,157.011,452.319,120.616z
		 M394.716,78.357l15.685,14.07l-87.521-3.613c4.388-8.12,6.72-16.889,6.72-25.691c0-0.487-0.033-0.965-0.047-1.448L394.716,78.357z
		 M157.391,194.263c16.369-4.385,34.414-5.269,53.842-2.532h0.015c-20.302,28.742-66.524,87.471-124.048,119.841
		c-16.046-6.628-29.244-13.951-37.623-19.018C62.926,268.384,100.563,209.495,157.391,194.263z M286.158,248.051
		c-19.224,28.259-51.153,64.36-94.083,75.859c-21.312,5.713-45.124,5.376-71.063-0.968c72.72-49.52,122.392-129.264,124.705-133.019
		c1.187-1.926,1.878-4.114,2.011-6.373c1.645-27.85-8.43-66.734-17.163-94.423c-1.381-4.408-3.145-8.456-4.56-11.905
		c-2.109-5.139-2.889-12.41-2.889-14.101c0-19.713,16.037-35.75,35.75-35.75c19.64,0,43.361,15.946,43.361,35.75
		c0,9.095-5.126,16.33-9.426,20.798c-13.473,14.003-21.268,31.838-21.949,50.23c-0.838,22.994,4.963,45.841,17.24,67.908
		C296.234,216.71,295.495,234.332,286.158,248.051z M425.538,277.389c-22.641,0-41.06-18.42-41.06-41.06
		c0-16.066,21.833-67.518,41.062-108.261c19.227,40.739,41.059,92.186,41.059,108.261
		C466.598,258.969,448.179,277.389,425.538,277.389z"/>
	<circle style="fill:#231F20;" cx="266.275" cy="62.271" r="10.265"/>
</g>
<g>
</g>
<g>
</g>
<g>
</g>
<g>
</g>
<g>
</g>
<g>
</g>
<g>
</g>
<g>
</g>
<g>
</g>
<g>
</g>
<g>
</g>
<g>
</g>
<g>
</g>
<g>
</g>
<g>
</g>
</svg>
