<svg height="397pt" viewBox="0 0 397.74209 397" width="397pt" xmlns="http://www.w3.org/2000/svg"><path d="m46.816406 351.300781c-53.3125-53.328125-53.3125-139.78125 0-193.09375l111.03125-111.023437c53.3125-53.324219 139.765625-53.324219 193.078125 0h.015625c53.3125 53.3125 53.3125 139.769531 0 193.082031l-111.035156 111.035156c-53.3125 53.3125-139.765625 53.3125-193.089844 0" fill="#fff"/><path d="m46.816406 351.300781 4.832032-4.835937c-25.332032-25.347656-37.988282-58.5-37.988282-91.726563 0-33.226562 12.65625-66.378906 37.988282-91.699219l111.019531-111.03125c25.347656-25.347656 58.503906-37.988281 91.726562-38.003906 33.210938.015625 66.363281 12.65625 91.710938 38.003906 1.28125 1.277344 3 2.003907 4.820312 2.003907h.015625v-6.824219l-4.835937 4.820312c25.335937 25.351563 37.988281 58.503907 37.988281 91.710938 0 33.214844-12.652344 66.367188-37.988281 91.726562l-111.015625 111.019532c-25.351563 25.335937-58.503906 37.972656-91.726563 37.988281-33.210937-.015625-66.367187-12.652344-91.714843-37.988281l-4.832032 4.835937-4.820312 4.816407c27.980468 27.984374 64.699218 41.996093 101.367187 41.980468 36.664063.015625 73.402344-13.984375 101.378907-41.980468l111.019531-111.019532c27.976562-27.992187 41.992187-64.710937 41.980469-101.378906.011718-36.664062-14.003907-73.386719-41.980469-101.367188-1.265625-1.28125-3.03125-1.988281-4.820313-1.988281h-.015625v6.820313l4.835938-4.832032c-27.980469-27.992187-64.703125-41.992187-101.367188-41.980468-36.664062-.015625-73.402343 13.984375-101.378906 41.980468l-111.019531 111.019532c-27.980469 27.96875-41.996094 64.699218-41.996094 101.367187s14.019531 73.402344 41.996094 101.378907z" fill="#54596e"/><path d="m117.84375 78.152344c-.230469.539062-25.648438 56.425781-25.664062 133.78125-.027344 54.121094 12.554687 118.878906 55.191406 181.804687 2.105468 3.128907 6.355468 3.933594 9.46875 1.820313 3.128906-2.105469 3.9375-6.359375 1.835937-9.472656-40.847656-60.335938-52.832031-122.09375-52.84375-174.15625 0-37.15625 6.140625-69.332032 12.296875-92.152344 3.070313-11.398438 6.125-20.472656 8.414063-26.640625 1.136719-3.085938 2.09375-5.457031 2.746093-7.039063.328126-.792968.582032-1.390625.753907-1.777344l.183593-.40625.042969-.113281c1.5625-3.449219.042969-7.480469-3.398437-9.046875-3.429688-1.550781-7.480469-.027344-9.027344 3.398438" fill="#54596e"/><path d="m107.5 107.179688-55.851562 55.859374c-25.332032 25.320313-37.988282 58.472657-37.988282 91.699219 0 33.226563 12.65625 66.378907 37.988282 91.726563l-4.832032 4.832031 4.832032-4.832031c24.820312 24.804687 57.128906 37.441406 89.644531 37.964844-37.765625-59.964844-49.140625-121.039063-49.113281-172.5.007812-43.882813 8.195312-80.871094 15.320312-104.75" fill="#e6e6e9"/><path d="m51.648438 346.464844-4.832032 4.835937c26.648438 26.636719 61.558594 39.859375 96.480469 39.859375.777344 0 1.554687-.007812 2.332031-.023437-1.480468-2.234375-2.929687-4.472657-4.332031-6.707031-32.519531-.523438-64.824219-13.15625-89.648437-37.964844m60.472656-253.558594-65.304688 65.300781c-53.3125 53.324219-53.3125 139.765625 0 193.09375l4.832032-4.835937c-25.332032-25.347656-37.988282-58.5-37.988282-91.726563 0-33.226562 12.65625-66.378906 37.988282-91.699219l55.851562-55.859374c1.632812-5.472657 3.210938-10.253907 4.621094-14.273438" fill="#54596e"/><path d="m124.054688 80.964844-11.933594 11.941406c-1.410156 4.019531-2.988282 8.796875-4.621094 14.269531-7.121094 23.882813-15.308594 60.867188-15.316406 104.753907-.027344 51.460937 11.34375 112.535156 49.113281 172.5 1.40625 2.234374 2.851563 4.472656 4.332031 6.707031 2.359375-.039063 4.71875-.140625 7.074219-.300781l.3125-.925782c-101.367187-149.644531-28.960937-308.945312-28.960937-308.945312" fill="#54596e"/><path d="m116.277344 323.65625c.660156.316406 25.234375 11.984375 65.898437 11.984375 29.144531.011719 66.535157-6.035156 108.964844-26.46875 3.394531-1.640625 4.820313-5.714844 3.1875-9.113281-1.636719-3.394532-5.714844-4.820313-9.109375-3.179688-40.558594 19.507813-75.769531 25.101563-103.039062 25.113282-19.015626 0-34.171876-2.738282-44.503907-5.441407-5.164062-1.347656-9.121093-2.683593-11.746093-3.671875-1.3125-.492187-2.289063-.894531-2.921876-1.167968l-.679687-.300782-.140625-.066406h-.003906c-3.402344-1.632812-7.480469-.191406-9.113282 3.207031-1.628906 3.398438-.191406 7.480469 3.210938 9.113281zm0 0" fill="#54596e"/><path d="m350.925781 47.191406c-45.320312-45.324218-118.796875-45.324218-164.117187 0-45.320313 45.320313-45.320313 118.796875 0 164.117188 45.320312 45.320312 118.796875 45.320312 164.117187 0 45.320313-45.320313 45.320313-118.796875 0-164.117188zm0 0" fill="#ffd578"/><path d="m350.929688 211.304688 4.832031 4.820312c23.980469-23.980469 35.996093-55.472656 35.988281-86.878906.007812-31.433594-12.007812-62.925782-35.992188-86.894532-23.972656-23.988281-55.460937-36-86.886718-35.988281-31.425782-.011719-62.914063 12-86.890625 35.996094-23.980469 23.972656-35.996094 55.457031-35.988281 86.886719-.007813 31.417968 12.007812 62.90625 35.988281 86.886718 23.976562 23.980469 55.46875 35.992188 86.890625 35.976563 31.425781.015625 62.910156-12.003906 86.886718-35.976563l-4.828124-4.828124-4.824219-4.832032c-21.34375 21.332032-49.257813 31.976563-77.234375 31.992188-27.976563-.015625-55.890625-10.652344-77.234375-31.992188-21.339844-21.339844-31.984375-49.253906-31.988281-77.226562.007812-27.980469 10.648437-55.894532 31.988281-77.234375 21.347656-21.347657 49.257812-31.988281 77.234375-32 27.976562.011719 55.890625 10.652343 77.230468 31.992187 21.34375 21.332032 31.988282 49.253906 31.996094 77.242188-.007812 27.960937-10.652344 55.878906-31.996094 77.230468zm0 0" fill="#54596e"/><path d="m286.039062 146.210938c0 18.851562-15.28125 34.136718-34.132812 34.136718s-34.132812-15.285156-34.132812-34.136718c0-18.851563 15.28125-34.132813 34.132812-34.132813s34.132812 15.28125 34.132812 34.132813zm0 0" fill="#54596e"/><path d="m265.558594 153.039062c0-7.539062-27.304688-7.539062-27.304688 0 0 7.539063 6.113282 13.652344 13.652344 13.652344s13.652344-6.113281 13.652344-13.652344zm0 0" fill="#ff927d"/><g fill="#54596e"><path d="m269.703125 60.832031c1.347656-1.347656 3.042969-1.988281 4.824219-2 1.769531.011719 3.476562.660157 4.828125 2.007813h.003906c1.339844 1.339844 1.988281 3.050781 1.992187 4.8125-.007812 1.765625-.652343 3.472656-2.011718 4.84375-2.660156 2.675781-2.652344 6.996094.019531 9.660156 2.675781 2.664062 7 2.65625 9.664063-.019531 3.96875-3.992188 5.992187-9.273438 5.984374-14.484375.003907-5.222656-2.011718-10.492188-6.003906-14.472656h.003906c-3.980468-3.988282-9.261718-6.007813-14.480468-5.996094-5.210938-.011719-10.503906 2-14.488282 6-2.667968 2.667968-2.664062 6.996094.003907 9.65625 2.671875 2.664062 6.996093 2.664062 9.660156 0zm0 0"/><path d="m322.804688 113.925781c1.347656-1.339843 3.039062-1.980469 4.820312-1.992187 1.769531.011718 3.472656.660156 4.824219 2l.007812.007812c1.339844 1.34375 1.984375 3.050782 1.992188 4.8125-.007813 1.765625-.648438 3.472656-2.011719 4.84375-2.660156 2.667969-2.652344 6.996094.019531 9.65625 2.671875 2.664063 6.996094 2.652344 9.660157-.015625 3.972656-3.992187 5.996093-9.273437 5.988281-14.484375.003906-5.222656-2.015625-10.5-6.007813-14.472656l.007813.003906c-3.980469-3.992187-9.265625-6.011718-14.484375-6-5.207032-.011718-10.5 2-14.488282 6.007813-2.660156 2.667969-2.65625 6.988281.015626 9.652343 2.671874 2.660157 6.992187 2.65625 9.65625-.011718zm0 0"/><path d="m355.761719 3.730469-33.789063 33.792969c-2.667968 2.667968-2.667968 6.996093 0 9.660156 2.664063 2.660156 6.988282 2.660156 9.652344 0l33.792969-33.792969c2.664062-2.664063 2.664062-6.992187 0-9.660156-2.667969-2.65625-6.992188-2.65625-9.65625 0"/><path d="m350.933594 37.523438-14.480469 14.480468c-2.667969 2.667969-2.667969 6.996094-.003906 9.652344 2.667969 2.667969 6.988281 2.675781 9.65625.007812l14.484375-14.480468c2.664062-2.664063 2.664062-6.992188 0-9.652344-2.664063-2.667969-6.988282-2.671875-9.65625-.007812"/><path d="m375.066406 42.351562-24.132812 24.132813c-2.664063 2.667969-2.664063 6.996094 0 9.660156 2.667968 2.660157 6.992187 2.660157 9.65625 0l24.132812-24.132812c2.667969-2.667969 2.667969-6.996094 0-9.660157-2.667968-2.660156-6.988281-2.660156-9.65625 0"/></g><path d="m347.480469 173.519531c0-7.539062-13.65625-27.308593-13.65625-27.308593s-13.652344 19.769531-13.652344 27.308593c0 7.539063 6.113281 13.652344 13.652344 13.652344 7.542969 0 13.65625-6.113281 13.65625-13.652344zm0 0" fill="#55a6ff"/><path d="m347.480469 241.785156c0-7.539062-13.65625-27.304687-13.65625-27.304687s-13.652344 19.765625-13.652344 27.304687c0 7.539063 6.113281 13.652344 13.652344 13.652344 7.542969 0 13.65625-6.113281 13.65625-13.652344zm0 0" fill="#55a6ff"/><path d="m347.480469 316.878906c0-7.539062-13.65625-27.304687-13.65625-27.304687s-13.652344 19.765625-13.652344 27.304687c0 7.539063 6.113281 13.652344 13.652344 13.652344 7.542969 0 13.65625-6.113281 13.65625-13.652344zm0 0" fill="#55a6ff"/></svg>